<svg id="account_circle-filled" xmlns="http://www.w3.org/2000/svg" width="84.02" height="84.02" viewBox="0 0 84.02 84.02">
  <path id="Path_23" data-name="Path 23" d="M0,0H84.02V84.02H0Z" fill="none"/>
  <path id="Path_24" data-name="Path 24" d="M37.008,2A35.008,35.008,0,1,0,72.016,37.008,35.021,35.021,0,0,0,37.008,2Zm0,10.5A10.5,10.5,0,1,1,26.506,23,10.488,10.488,0,0,1,37.008,12.5Zm0,49.712A25.208,25.208,0,0,1,16,50.941c.105-6.967,14-10.783,21-10.783,6.967,0,20.9,3.816,21,10.783A25.208,25.208,0,0,1,37.008,62.214Z" transform="translate(5.002 5.002)" fill="#9e9e9e"/>
</svg>
