<svg xmlns="http://www.w3.org/2000/svg" width="10.27" height="10.27" viewBox="0 0 10.27 10.27">
  <g id="Icon_ionic-ios-add-circle-outline" data-name="Icon ionic-ios-add-circle-outline" transform="translate(-3.375 -3.375)">
    <path id="Path_1184" data-name="Path 1184" d="M15.513,12.809H13.622V10.918a.406.406,0,0,0-.812,0v1.891H10.918a.389.389,0,0,0-.406.406.393.393,0,0,0,.406.406h1.891v1.891a.393.393,0,0,0,.406.406.4.4,0,0,0,.406-.406V13.622h1.891a.406.406,0,0,0,0-.812Z" transform="translate(-4.706 -4.706)" fill="#fff"/>
    <path id="Path_1185" data-name="Path 1185" d="M8.51,4.066a4.442,4.442,0,1,1-3.143,1.3,4.414,4.414,0,0,1,3.143-1.3m0-.691A5.135,5.135,0,1,0,13.645,8.51,5.134,5.134,0,0,0,8.51,3.375Z" transform="translate(0 0)" fill="#fff"/>
  </g>
</svg>
