<svg id="add_location_alt-outlined" xmlns="http://www.w3.org/2000/svg" width="12" height="12" viewBox="0 0 12 12">
  <path id="Path_60563" data-name="Path 60563" d="M0,0H12V12H0Z" fill="none"/>
  <path id="Path_60564" data-name="Path 60564" d="M12,1V2.5h1.5v1H12V5H11V3.5H9.5v-1H11V1ZM8,7A1,1,0,1,1,9,6,1,1,0,0,1,8,7Zm.5-4.97V3.04A3.265,3.265,0,0,0,8,3,2.977,2.977,0,0,0,5,6.1c0,1.17.975,2.72,3,4.57,2.025-1.85,3-3.395,3-4.57V6h1v.1Q12,8.59,8,12,4,8.588,4,6.1A3.977,3.977,0,0,1,8,2a4.131,4.131,0,0,1,.5.03Z" transform="translate(-2 -0.5)" fill="#8d8d8d"/>
</svg>
