<svg id="data_usage-outlined" xmlns="http://www.w3.org/2000/svg" width="12" height="12" viewBox="0 0 12 12">
  <path id="Path_60567" data-name="Path 60567" d="M0,0H12V12H0Z" fill="none"/>
  <path id="Path_60568" data-name="Path 60568" d="M7.592,2.05V3.591a3.556,3.556,0,0,1,3.05,3.519A3.623,3.623,0,0,1,10.4,8.4l1.322.778a5.023,5.023,0,0,0,.447-2.069A5.087,5.087,0,0,0,7.592,2.05Zm-.508,8.618a3.557,3.557,0,0,1-.508-7.078V2.05a5.084,5.084,0,1,0,4.6,8.064L9.854,9.336A3.533,3.533,0,0,1,7.083,10.668Z" transform="translate(-1.083 -1.11)" fill="#8d8d8d"/>
</svg>
