<svg xmlns="http://www.w3.org/2000/svg" width="17.435" height="21.467" viewBox="0 0 17.435 21.467"><defs><style>.a{fill:#1956b4;}</style></defs><path class="a" d="M222.9,154.7a.5.5,0,0,0-.5.5v9.5a.5.5,0,0,0,1.005,0v-9.5A.5.5,0,0,0,222.9,154.7Zm0,0" transform="translate(-211.217 -146.925)"/><path class="a" d="M104.9,154.7a.5.5,0,0,0-.5.5v9.5a.5.5,0,1,0,1.005,0v-9.5A.5.5,0,0,0,104.9,154.7Zm0,0" transform="translate(-99.149 -146.925)"/><path class="a" d="M1.425,6.389V18.776a2.774,2.774,0,0,0,.737,1.913,2.476,2.476,0,0,0,1.8.777H13.47a2.475,2.475,0,0,0,1.8-.777A2.774,2.774,0,0,0,16,18.776V6.389a1.92,1.92,0,0,0-.493-3.777H12.937V1.984A1.975,1.975,0,0,0,10.946,0H6.482A1.975,1.975,0,0,0,4.491,1.984v.628H1.917a1.92,1.92,0,0,0-.493,3.777ZM13.47,20.46H3.958A1.592,1.592,0,0,1,2.43,18.776V6.434H15V18.776A1.592,1.592,0,0,1,13.47,20.46ZM5.5,1.984A.969.969,0,0,1,6.482,1h4.464a.969.969,0,0,1,.985.98v.628H5.5ZM1.917,3.618H15.511a.9.9,0,1,1,0,1.81H1.917a.9.9,0,1,1,0-1.81Zm0,0" transform="translate(0.003 0.002)"/><path class="a" d="M163.9,154.7a.5.5,0,0,0-.5.5v9.5a.5.5,0,0,0,1.005,0v-9.5A.5.5,0,0,0,163.9,154.7Zm0,0" transform="translate(-155.183 -146.925)"/></svg>