<svg id="file" xmlns="http://www.w3.org/2000/svg" width="13.684" height="17.5" viewBox="0 0 13.684 17.5">
  <path id="Path_52544" data-name="Path 52544" d="M9.145,0H1.972A1.981,1.981,0,0,0,0,1.968V15.532A1.981,1.981,0,0,0,1.972,17.5h9.736a1.981,1.981,0,0,0,1.972-1.968V4.757Zm0,0" fill="#00a99d"/>
  <path id="Path_52545" data-name="Path 52545" d="M335.269.488l4.517,4.748h-3.007a1.509,1.509,0,0,1-1.51-1.51Zm0,0" transform="translate(-326.102 -0.475)" fill="#2280dc"/>
  <g id="Group_20403" data-name="Group 20403" transform="translate(2.741 5.672)">
    <path id="Path_52546" data-name="Path 52546" d="M107.981,511.676h-7.311a.444.444,0,0,0,0,.888h7.315a.444.444,0,1,0,0-.888Zm0,0" transform="translate(-100.227 -503.357)" fill="#fff"/>
    <path id="Path_52547" data-name="Path 52547" d="M141.627,214.154a.441.441,0,0,0,.648,0l2.6-2.794a.443.443,0,0,0-.648-.6l-1.83,1.968v-4.85a.444.444,0,0,0-.888,0v4.85l-1.83-1.968a.443.443,0,0,0-.649.6Zm0,0" transform="translate(-137.852 -207.429)" fill="#fff"/>
  </g>
</svg>
