<svg xmlns="http://www.w3.org/2000/svg" width="42" height="42" viewBox="0 0 42 42"><defs><style>.a{fill:none;}.b{fill:#fff;}.c{fill:#2449d9;}</style></defs><g transform="translate(41.554 41.554) rotate(180)"><rect class="a" width="42" height="42" transform="translate(-0.446 -0.446)"/><circle class="b" cx="16.765" cy="16.765" r="16.765" transform="translate(3.789 3.872)"/><path class="c" d="M40.766,24A16.766,16.766,0,1,0,57.533,40.766,16.766,16.766,0,0,0,40.766,24Zm3.442,21.612a1.29,1.29,0,1,1-1.726,1.917l-6.449-5.8a1.289,1.289,0,0,1,0-1.917L42.483,34a1.29,1.29,0,1,1,1.725,1.917l-5.383,4.845Z" transform="translate(-20.131 -20.131)"/></g></svg>