<svg xmlns="http://www.w3.org/2000/svg" width="32.338" height="32.338" viewBox="0 0 32.338 32.338">
  <g id="ic_back" transform="translate(663.338 290.338) rotate(180)">
    <g id="Group_19958" data-name="Group 19958" transform="translate(631 257.999)">
      <path id="Path_50415" data-name="Path 50415" d="M48.4,32.188A16.17,16.17,0,1,1,32.231,16.019,16.125,16.125,0,0,1,48.4,32.188Z" transform="translate(-16.062 -16.019)" fill="#d1dfff"/>
    </g>
    <g id="Group_19960" data-name="Group 19960" transform="translate(643.222 267.489)">
      <path id="Path_50417" data-name="Path 50417" d="M217.26,181.379a1.216,1.216,0,0,1-.859-2.073l4.606-4.606-4.606-4.606a1.214,1.214,0,1,1,1.717-1.717l5.465,5.465a1.214,1.214,0,0,1,0,1.717l-5.465,5.465A1.211,1.211,0,0,1,217.26,181.379Z" transform="translate(-216.044 -168.02)" fill="#0054a6"/>
    </g>
  </g>
</svg>
