<svg xmlns="http://www.w3.org/2000/svg" width="40" height="40" viewBox="0 0 40 40"><defs><style>.a{fill:#d1dfff;}.b{fill:#2449d9;}</style></defs><g transform="translate(671 298) rotate(180)"><g transform="translate(631 257.999)"><path class="a" d="M56.062,36.019a20,20,0,1,1-20-20,19.945,19.945,0,0,1,20,20Z" transform="translate(-16.062 -16.019)"/></g><g transform="translate(646.721 270.757)"><path class="b" d="M217.362,182.505a1.318,1.318,0,0,1-.931-2.248l4.995-4.995-4.995-4.995a1.317,1.317,0,0,1,1.862-1.862l5.926,5.926a1.317,1.317,0,0,1,0,1.862l-5.926,5.926A1.312,1.312,0,0,1,217.362,182.505Z" transform="translate(-216.044 -168.02)"/></g></g></svg>