<svg id="ic_close_x" xmlns="http://www.w3.org/2000/svg" width="41" height="41" viewBox="0 0 41 41">
  <circle id="Ellipse_58" data-name="Ellipse 58" cx="20.5" cy="20.5" r="20.5" fill="#fff"/>
  <path id="MobileCancelMajor" d="M302.6,293.277l6.271-6.272a1,1,0,0,0-1.384-1.434l-.024.025-6.271,6.271-6.273-6.271a1,1,0,1,0-1.46,1.356l.027.027.024.025,6.272,6.272-6.272,6.272a1,1,0,0,0,1.356,1.46l.028-.027.024-.025,6.274-6.273,6.272,6.271a1,1,0,0,0,1.46-1.356l-.027-.029-.025-.024Z" transform="translate(-280.694 -272.777)" fill="#1176b3" stroke="#1176b3" stroke-width="0.8"/>
</svg>
