<svg id="ic_cancel" xmlns="http://www.w3.org/2000/svg" width="24" height="24" viewBox="0 0 24 24">
  <path id="Path_50294" data-name="Path 50294" d="M20.485,3.515A12,12,0,0,0,3.515,20.485,12,12,0,0,0,20.485,3.515Z" transform="translate(0 0)" fill="#182a58" opacity="0"/>
  <path id="Path_50296" data-name="Path 50296" d="M143.985,143.185l3.463-3.463a.567.567,0,1,0-.8-.8l-3.463,3.463-3.463-3.463a.567.567,0,0,0-.8.8l3.463,3.463-3.463,3.463a.567.567,0,1,0,.8.8l3.463-3.463,3.463,3.463a.567.567,0,0,0,.8-.8Z" transform="translate(-130.936 -130.939)" fill="#182a58"/>
</svg>
