<svg xmlns="http://www.w3.org/2000/svg" width="24.501" height="25.537" viewBox="0 0 24.501 25.537">
  <g id="ic_edit_blue" transform="translate(0 0)">
    <g id="Group_20469" data-name="Group 20469" transform="translate(0 0)">
      <g id="Group_20468" data-name="Group 20468">
        <path id="Path_52552" data-name="Path 52552" d="M26.67,20.43h.138l6.66-1.449a.656.656,0,0,0,.345-.173L45.1,7.523a4.348,4.348,0,0,0,1.277-3.106A4.486,4.486,0,0,0,45.1,1.277,4.348,4.348,0,0,0,41.992,0a4.245,4.245,0,0,0-3.106,1.311L27.636,12.6a.621.621,0,0,0-.207.311l-1.449,6.66a.759.759,0,0,0,.207.656A.69.69,0,0,0,26.67,20.43ZM41.992,1.381a3,3,0,0,1,3,3q0,.017,0,.035a2.9,2.9,0,0,1-.863,2.105L39.887,2.244A2.968,2.968,0,0,1,41.992,1.381ZM38.921,3.244l4.245,4.245-9.835,9.8-4.245-4.21ZM28.533,14.46l3.416,3.416-4.383.966Z" transform="translate(-24.772 0)" fill="#0054a6"/>
        <path id="Path_52553" data-name="Path 52553" d="M31.649,365.717H8.528a.69.69,0,0,0,0,1.38H31.649a.69.69,0,0,0,0-1.38Z" transform="translate(-7.838 -341.561)" fill="#0054a6"/>
      </g>
    </g>
  </g>
</svg>
