<svg id="ic_folder_open" xmlns="http://www.w3.org/2000/svg" width="28" height="28" viewBox="0 0 28 28">
  <rect id="Rectangle_3402" data-name="Rectangle 3402" width="28" height="28" fill="none"/>
  <path id="Path_60910" data-name="Path 60910" d="M47.715,54.819A1.746,1.746,0,0,0,46.3,54.1H44.9V52.354a1.744,1.744,0,0,0-1.742-1.742H35.61l-3.019-2.264A1.753,1.753,0,0,0,31.547,48H25.742A1.744,1.744,0,0,0,24,49.742V65.415a.877.877,0,0,0,0,.092v.009a.857.857,0,0,0,.015.089c0,.008,0,.016.006.023.006.025.013.049.021.072l.009.025q.014.036.031.07l.01.021a.869.869,0,0,0,.11.163l.02.022c.015.017.031.033.048.048l.024.022c.019.016.038.031.058.046l.018.013a.862.862,0,0,0,.084.051l.008,0a.858.858,0,0,0,.08.037l.024.009q.035.013.07.022l.028.007c.024.006.048.01.072.013l.027,0a.877.877,0,0,0,.1.006H44.027a.871.871,0,0,0,.826-.6l3.1-9.3A1.746,1.746,0,0,0,47.715,54.819ZM31.547,49.742l3.019,2.264a1.753,1.753,0,0,0,1.045.348h7.547V54.1H37.325a1.736,1.736,0,0,0-.966.293l-2.174,1.449H28.943a1.733,1.733,0,0,0-1.617,1.095l-1.585,3.962V49.742Z" transform="translate(-21.388 -42.775)" fill="#2449d9"/>
</svg>
