<svg xmlns="http://www.w3.org/2000/svg" width="24" height="24" viewBox="0 0 24 24"><defs><style>.a{fill:none;}.b{fill:#2449d9;}</style></defs><rect class="a" width="24" height="24"/><path class="b" d="M32,56.737a.731.731,0,0,1,.731-.731H48.814a.731.731,0,1,1,0,1.462H32.731A.731.731,0,0,1,32,56.737Zm.731,6.579H48.814a.731.731,0,1,0,0-1.462H32.731a.731.731,0,1,0,0,1.462Zm9.5,4.386h-9.5a.731.731,0,1,0,0,1.462h9.5a.731.731,0,1,0,0-1.462Zm8.042,0H48.814V66.241a.731.731,0,0,0-1.462,0V67.7H45.89a.731.731,0,1,0,0,1.462h1.462v1.462a.731.731,0,0,0,1.462,0V69.165h1.462a.731.731,0,1,0,0-1.462Z" transform="translate(-29.076 -50.888)"/></svg>