<svg xmlns="http://www.w3.org/2000/svg" xmlns:xlink="http://www.w3.org/1999/xlink" width="232" height="232" viewBox="0 0 232 232">
  <defs>
    <filter id="Rectangle_147732" x="0" y="0" width="232" height="232" filterUnits="userSpaceOnUse">
      <feOffset dy="3" input="SourceAlpha"/>
      <feGaussianBlur stdDeviation="3" result="blur"/>
      <feFlood flood-color="#b6caec" flood-opacity="0.651"/>
      <feComposite operator="in" in2="blur"/>
      <feComposite in="SourceGraphic"/>
    </filter>
    <filter id="Path_64302" x="50.79" y="64.882" width="130.737" height="120.601" filterUnits="userSpaceOnUse">
      <feOffset dy="3" input="SourceAlpha"/>
      <feGaussianBlur stdDeviation="3" result="blur-2"/>
      <feFlood flood-opacity="0.161"/>
      <feComposite operator="in" in2="blur-2"/>
      <feComposite in="SourceGraphic"/>
    </filter>
  </defs>
  <g id="ic_SMS" transform="translate(-578 -364)">
    <g transform="matrix(1, 0, 0, 1, 578, 364)" filter="url(#Rectangle_147732)">
      <rect id="Rectangle_147732-2" data-name="Rectangle 147732" width="214" height="214" rx="12" transform="translate(9 6)" fill="#fff"/>
    </g>
    <g id="chat-text-duotone" transform="translate(619 402)">
      <rect id="Rectangle_147739" data-name="Rectangle 147739" width="150" height="150" fill="none"/>
      <path id="Path_64301" data-name="Path 64301" d="M117.727,141.316l19.318,16.206a4.7,4.7,0,0,0,7.692-3.582V60.7a4.7,4.7,0,0,0-4.7-4.7H36.7A4.7,4.7,0,0,0,32,60.7v75.158a4.7,4.7,0,0,0,4.7,4.7h78.857Z" transform="translate(-13.21 -23.118)" fill="none" opacity="0.2"/>
      <g transform="matrix(1, 0, 0, 1, -41, -38)" filter="url(#Path_64302)">
        <path id="Path_64302-2" data-name="Path 64302" d="M117.727,141.316l19.318,16.206a4.7,4.7,0,0,0,7.692-3.582V60.7a4.7,4.7,0,0,0-4.7-4.7H36.7A4.7,4.7,0,0,0,32,60.7v75.158a4.7,4.7,0,0,0,4.7,4.7h78.857Z" transform="translate(27.79 14.88)" fill="#4b399d"/>
      </g>
      <line id="Line_296" data-name="Line 296" x1="38" transform="translate(56 66)" fill="none" stroke="#fff" stroke-linecap="round" stroke-linejoin="round" stroke-width="10"/>
      <line id="Line_297" data-name="Line 297" x1="38" transform="translate(56 85)" fill="none" stroke="#fff" stroke-linecap="round" stroke-linejoin="round" stroke-width="10"/>
    </g>
  </g>
</svg>
