<svg xmlns="http://www.w3.org/2000/svg" xmlns:xlink="http://www.w3.org/1999/xlink" width="77.466" height="63" viewBox="0 0 77.466 63">
  <defs>
    <filter id="Path_64272" x="19.428" y="0" width="58.038" height="63" filterUnits="userSpaceOnUse">
      <feOffset dy="4" input="SourceAlpha"/>
      <feGaussianBlur stdDeviation="5" result="blur"/>
      <feFlood flood-color="#b6caec" flood-opacity="0.231"/>
      <feComposite operator="in" in2="blur"/>
      <feComposite in="SourceGraphic"/>
    </filter>
    <filter id="Path_64261" x="49.234" y="8.923" width="19.231" height="19.231" filterUnits="userSpaceOnUse">
      <feOffset dy="2" input="SourceAlpha"/>
      <feGaussianBlur stdDeviation="2" result="blur-2"/>
      <feFlood flood-color="#b6c9f3" flood-opacity="0.239"/>
      <feComposite operator="in" in2="blur-2"/>
      <feComposite in="SourceGraphic"/>
    </filter>
    <filter id="Path_64272-2" x="1" y="1" width="54.981" height="60.556" filterUnits="userSpaceOnUse">
      <feOffset dy="4" input="SourceAlpha"/>
      <feGaussianBlur stdDeviation="5" result="blur-3"/>
      <feFlood flood-color="#b6caec" flood-opacity="0.231"/>
      <feComposite operator="in" in2="blur-3"/>
      <feComposite in="SourceGraphic"/>
    </filter>
    <filter id="Path_64261-2" x="28.767" y="8.222" width="18.58" height="18.58" filterUnits="userSpaceOnUse">
      <feOffset dy="2" input="SourceAlpha"/>
      <feGaussianBlur stdDeviation="2" result="blur-4"/>
      <feFlood flood-color="#b6c9f3" flood-opacity="0.239"/>
      <feComposite operator="in" in2="blur-4"/>
      <feComposite in="SourceGraphic"/>
    </filter>
    <filter id="Ellipse_1182" x="0" y="23" width="33" height="33" filterUnits="userSpaceOnUse">
      <feOffset dy="3" input="SourceAlpha"/>
      <feGaussianBlur stdDeviation="3" result="blur-5"/>
      <feFlood flood-color="#35b670" flood-opacity="0.2"/>
      <feComposite operator="in" in2="blur-5"/>
      <feComposite in="SourceGraphic"/>
    </filter>
  </defs>
  <g id="ic_upload" transform="translate(-887 -356)">
    <g id="Group_79958" data-name="Group 79958" transform="translate(903.366 367)">
      <g id="Group_79956" data-name="Group 79956" transform="matrix(0.995, 0.105, -0.105, 0.995, 21.256, 0)">
        <g transform="matrix(0.99, -0.1, 0.1, 0.99, -38.57, -7.01)" filter="url(#Path_64272)">
          <path id="Path_64272-3" data-name="Path 64272" d="M22.527,30.556H2.453A2.453,2.453,0,0,1,0,28.1V2.453A2.453,2.453,0,0,1,2.453,0H18.4L24.98,6.58V28.1a2.453,2.453,0,0,1-2.453,2.453Z" transform="matrix(0.99, 0.1, -0.1, 0.99, 37.62, 11)" fill="#fff"/>
        </g>
        <g transform="matrix(0.99, -0.1, 0.1, 0.99, -38.57, -7.01)" filter="url(#Path_64261)">
          <path id="Path_64261-3" data-name="Path 64261" d="M3.569,6.58h-1.9A1.673,1.673,0,0,1,0,4.907V0L6.58,6.58H3.569Z" transform="matrix(0.99, 0.1, -0.1, 0.99, 55.92, 12.92)" fill="#dae5ff"/>
        </g>
        <g id="file-jpg-duotone" transform="translate(3.395 6.492)">
          <rect id="Rectangle_147760" data-name="Rectangle 147760" width="20.137" height="20.137" fill="none"/>
          <path id="Path_64337" data-name="Path 64337" d="M48,39.574V32.631A.631.631,0,0,1,48.631,32h7.574l4.418,4.418v3.156" transform="translate(-44.213 -29.475)" fill="none" stroke="#554b86" stroke-linecap="round" stroke-linejoin="round" stroke-width="1"/>
          <path id="Path_64338" data-name="Path 64338" d="M152,32v4.418h4.418" transform="translate(-140.008 -29.475)" fill="none" stroke="#554b86" stroke-linecap="round" stroke-linejoin="round" stroke-width="1"/>
          <path id="Path_64339" data-name="Path 64339" d="M104,170.525h1.262a1.262,1.262,0,1,0,0-2.525H104v3.787" transform="translate(-95.795 -154.745)" fill="none" stroke="#554b86" stroke-linecap="round" stroke-linejoin="round" stroke-width="1"/>
          <path id="Path_64340" data-name="Path 64340" d="M42.525,168v2.525a1.262,1.262,0,1,1-2.525,0" transform="translate(-36.844 -154.745)" fill="none" stroke="#554b86" stroke-linecap="round" stroke-linejoin="round" stroke-width="1"/>
          <path id="Path_64341" data-name="Path 64341" d="M162.209,170.051h.947v.931a1.7,1.7,0,0,1-1.42.8,1.9,1.9,0,0,1,0-3.787,1.6,1.6,0,0,1,.947.308" transform="translate(-147.377 -154.745)" fill="none" stroke="#554b86" stroke-linecap="round" stroke-linejoin="round" stroke-width="1"/>
        </g>
      </g>
      <g id="Group_79957" data-name="Group 79957" transform="translate(0 1.222)">
        <g transform="matrix(1, 0, 0, 1, -16.37, -12.22)" filter="url(#Path_64272-2)">
          <path id="Path_64272-4" data-name="Path 64272" d="M22.527,30.556H2.453A2.453,2.453,0,0,1,0,28.1V2.453A2.453,2.453,0,0,1,2.453,0H18.4l6.58,6.58V28.1a2.453,2.453,0,0,1-2.453,2.453Z" transform="translate(16 12)" fill="#fff"/>
        </g>
        <g transform="matrix(1, 0, 0, 1, -16.37, -12.22)" filter="url(#Path_64261-2)">
          <path id="Path_64261-4" data-name="Path 64261" d="M3.569,6.58h-1.9A1.673,1.673,0,0,1,0,4.907V0L6.58,6.58H3.569Z" transform="translate(34.77 12.22)" fill="#dae5ff"/>
        </g>
        <g id="file-pdf-duotone" transform="translate(2.634 5.778)">
          <rect id="Rectangle_147759" data-name="Rectangle 147759" width="20" height="20" fill="none"/>
          <path id="Path_64330" data-name="Path 64330" d="M48,39.417v-6.8A.618.618,0,0,1,48.618,32h7.417l4.327,4.327v3.09" transform="translate(-44.291 -29.528)" fill="none" stroke="#554b86" stroke-linecap="round" stroke-linejoin="round" stroke-width="1"/>
          <path id="Path_64331" data-name="Path 64331" d="M152,32v4.327h4.327" transform="translate(-140.256 -29.528)" fill="none" stroke="#554b86" stroke-linecap="round" stroke-linejoin="round" stroke-width="1"/>
          <path id="Path_64332" data-name="Path 64332" d="M48,170.472h1.236a1.236,1.236,0,0,0,0-2.472H48v3.709" transform="translate(-44.291 -155.02)" fill="none" stroke="#554b86" stroke-linecap="round" stroke-linejoin="round" stroke-width="1"/>
          <path id="Path_64333" data-name="Path 64333" d="M190.163,168H188v3.709" transform="translate(-173.475 -155.02)" fill="none" stroke="#554b86" stroke-linecap="round" stroke-linejoin="round" stroke-width="1"/>
          <path id="Path_64335" data-name="Path 64335" d="M1.854,0H0" transform="translate(14.525 15.143)" fill="none" stroke="#554b86" stroke-linecap="round" stroke-width="1"/>
          <path id="Path_64334" data-name="Path 64334" d="M115.082,171.709a1.854,1.854,0,1,0,0-3.709H114v3.709Z" transform="translate(-105.192 -155.02)" fill="none" stroke="#554b86" stroke-linecap="round" stroke-linejoin="round" stroke-width="1"/>
        </g>
      </g>
    </g>
    <g id="Group_79959" data-name="Group 79959" transform="translate(896 385.185)">
      <g transform="matrix(1, 0, 0, 1, -9, -29.19)" filter="url(#Ellipse_1182)">
        <circle id="Ellipse_1182-2" data-name="Ellipse 1182" cx="7.5" cy="7.5" r="7.5" transform="translate(9 29)" fill="#fff"/>
      </g>
      <g id="cloud-arrow-up_3_" data-name="cloud-arrow-up (3)" transform="translate(3.683 3.683)">
        <rect id="Rectangle_147703" data-name="Rectangle 147703" width="7" height="7" transform="translate(0.317 0.132)" fill="none"/>
        <path id="Path_64252" data-name="Path 64252" d="M18.287,99.2H17.6a1.6,1.6,0,1,1,0-3.2,1.643,1.643,0,0,1,.4.049" transform="translate(-15.543 -93.229)" fill="none" stroke="#35b670" stroke-linecap="round" stroke-linejoin="round" stroke-width="0.8"/>
        <path id="Path_64253" data-name="Path 64253" d="M80,50.282a2.287,2.287,0,1,1,4.117,1.372" transform="translate(-77.713 -46.596)" fill="none" stroke="#35b670" stroke-linecap="round" stroke-linejoin="round" stroke-width="0.8"/>
        <path id="Path_64254" data-name="Path 64254" d="M118.1,128.969l.969-.969.969.969" transform="translate(-114.724 -124.315)" fill="none" stroke="#35b670" stroke-linecap="round" stroke-linejoin="round" stroke-width="0.8"/>
        <path id="Path_64255" data-name="Path 64255" d="M0,2.287V0" transform="translate(4.345 3.685)" fill="none" stroke="#35b670" stroke-linecap="round" stroke-width="0.8"/>
      </g>
    </g>
  </g>
</svg>
