<svg xmlns="http://www.w3.org/2000/svg" width="100.994" height="93.351" viewBox="0 0 100.994 93.351">
  <g id="ic_upload" transform="translate(0 -0.037)">
    <path id="Shape" d="M82.137,24.381a29.255,29.255,0,0,0-54.2-9.719,16.758,16.758,0,0,0-3.074-.291A16.034,16.034,0,0,0,8.847,30.383a17.5,17.5,0,0,0,.332,3.323A22.281,22.281,0,0,0,0,51.67,23.821,23.821,0,0,0,6.043,67.433,21.569,21.569,0,0,0,21,74.951H39.023a2.8,2.8,0,0,0,0-5.607H21.245c-8.494-.519-15.638-8.6-15.638-17.694a16.645,16.645,0,0,1,8.245-14.33,2.827,2.827,0,0,0,1.225-3.406,10.174,10.174,0,0,1-.623-3.572,10.423,10.423,0,0,1,10.4-10.4,10.227,10.227,0,0,1,3.551.623,2.817,2.817,0,0,0,3.51-1.433,23.645,23.645,0,0,1,44.921,7.788,2.8,2.8,0,0,0,2.326,2.492c9.242,1.578,16.22,10.114,16.22,19.854,0,10.322-8.12,19.293-18.13,20.062H61.95a2.8,2.8,0,0,0,0,5.607H77.568a24.846,24.846,0,0,0,16.656-8.224A25.848,25.848,0,0,0,82.137,24.381Z" transform="translate(0 0.037)" fill="#00a99d"/>
    <path id="Shape-2" data-name="Shape" d="M34.469,19.646a2.8,2.8,0,0,0,0-3.967L19.62.831A2.837,2.837,0,0,0,17.647,0a2.75,2.75,0,0,0-1.973.831L.826,15.68a2.8,2.8,0,0,0,0,3.967,2.822,2.822,0,0,0,1.973.831,2.736,2.736,0,0,0,1.973-.831L14.844,9.574V55.865a2.8,2.8,0,1,0,5.607,0V9.574L30.523,19.646A2.77,2.77,0,0,0,34.469,19.646Z" transform="translate(32.86 34.719)" fill="#00a99d"/>
  </g>
</svg>
