<svg xmlns="http://www.w3.org/2000/svg" width="21" height="21" viewBox="0 0 21 21">
  <g id="ic_up_white" transform="translate(6840 -1924)">
    <rect id="Rectangle_3199" data-name="Rectangle 3199" width="21" height="21" transform="translate(-6840 1924)" fill="none"/>
    <path id="Path_60637" data-name="Path 60637" d="M13.041,7.085a.662.662,0,0,1-.936,0L7.279,2.259V15.22a.662.662,0,0,1-1.323,0V2.259L1.13,7.085a.662.662,0,1,1-.936-.936L6.149.194,6.156.188C6.169.175,6.183.162,6.2.15L6.223.131,6.25.111l.03-.018L6.305.078l.03-.015L6.364.05,6.394.04,6.425.029l.03-.008L6.488.013,6.523.007l.029,0c.022,0,.043,0,.065,0s.044,0,.065,0l.029,0,.035.005.033.008.03.008L6.841.04,6.87.05,6.9.064l.03.015.026.015.03.018.027.02L7.037.15c.015.012.029.025.042.038l.006.005,5.955,5.955A.662.662,0,0,1,13.041,7.085Z" transform="translate(-6828.771 1924) rotate(45)" fill="#fff"/>
  </g>
</svg>
