<svg xmlns="http://www.w3.org/2000/svg" width="12" height="12" viewBox="0 0 12 12">
  <g id="health_and_safety-outlined" transform="translate(-0.418 -0.418)">
    <rect id="Rectangle_3370" data-name="Rectangle 3370" width="12" height="12" transform="translate(0.418 0.418)" fill="none"/>
    <path id="Path_60560" data-name="Path 60560" d="M7.476,7.883H6.139v-1.6H7.476V4.942h1.6V6.279h1.337v1.6H9.081V9.22h-1.6ZM8.279,2,4,3.6V6.862A6.031,6.031,0,0,0,8.279,12.7a6.031,6.031,0,0,0,4.279-5.835V3.6Zm3.209,4.862a4.993,4.993,0,0,1-3.209,4.723A4.988,4.988,0,0,1,5.07,6.862V4.348l3.209-1.2,3.209,1.2Z" transform="translate(-1.861 -0.93)" fill="#a9a9a9"/>
  </g>
</svg>
