<svg id="checked_3_" data-name="checked (3)" xmlns="http://www.w3.org/2000/svg" width="60" height="60" viewBox="0 0 60 60">
  <g id="Group_1014" data-name="Group 1014" transform="translate(14.246 7.538)">
    <g id="Group_1013" data-name="Group 1013">
      <path id="Path_1188" data-name="Path 1188" d="M165.606,64.992a2.261,2.261,0,0,0-3.2,0L135.28,92.044l-9.788-10.63a2.261,2.261,0,0,0-3.327,3.063l11.382,12.361a2.259,2.259,0,0,0,1.615.729h.048a2.264,2.264,0,0,0,1.6-.66L165.6,68.19A2.261,2.261,0,0,0,165.606,64.992Z" transform="translate(-121.568 -64.327)" fill="#115983"/>
    </g>
  </g>
  <g id="Group_1016" data-name="Group 1016">
    <g id="Group_1015" data-name="Group 1015">
      <path id="Path_1189" data-name="Path 1189" d="M57.739,27.739A2.261,2.261,0,0,0,55.477,30,25.477,25.477,0,1,1,30,4.523,2.261,2.261,0,1,0,30,0,30,30,0,1,0,60,30,2.261,2.261,0,0,0,57.739,27.739Z" fill="#115983"/>
    </g>
  </g>
</svg>
