<svg id="verified-filled" xmlns="http://www.w3.org/2000/svg" width="108" height="108" viewBox="0 0 108 108">
  <g id="Group_78552" data-name="Group 78552">
    <rect id="Rectangle_3734" data-name="Rectangle 3734" width="108" height="108" fill="none"/>
  </g>
  <g id="Group_78553" data-name="Group 78553" transform="translate(4.496 6.743)">
    <path id="Path_61085" data-name="Path 61085" d="M99.9,48.7,88.935,36.161l1.529-16.589L74.234,15.886,65.737,1.5,50.452,8.064,35.167,1.5l-8.5,14.341L10.441,19.483l1.529,16.634L1,48.7,11.969,61.247,10.441,77.881,26.67,81.567l8.5,14.341L50.452,89.3l15.285,6.564,8.5-14.341,16.229-3.686L88.935,61.247ZM41.865,69.924,24.782,52.8l6.654-6.654,10.43,10.475,26.3-26.389,6.654,6.654Z" transform="translate(-1 -1.5)" fill="#0ac636"/>
  </g>
</svg>
